Patient4_TMGait_0pt2_03_left_26_GRF.mot
version=1
nRows=26
nColumns=19
inDegrees=no
endheader
time	F1x	F1y	F1z	M1x	M1y	M1z	F2x	F2y	F2z	M2x	M2y	M2z	EC1x	EC1y	EC1z	EC2x	EC2y	EC2z
54.24	-4.9276	20.1215	3.6174	-6.283	-5.0733	21.7348	-28.1274	782.1541	-42.0635	279.5392	62.9873	919.9732	-0.0592	0.0182	-0.0073	-0.0462	0.0165	0.9585
54.2614	-4.4917	15.2757	3.0182	-4.7528	-4.4413	16.523	-27.0414	808.7574	-42.9569	289.2328	63.3622	948.5544	-0.0592	0.0182	-0.0073	-0.0462	0.0165	0.9585
54.2827	-3.7558	10.4637	2.334	-3.2413	-3.6017	11.3276	-25.6735	835.9907	-43.7818	299.1542	63.4293	977.2929	-0.0592	0.0182	-0.0073	-0.0462	0.0165	0.9585
54.3041	-2.8716	6.253	1.6725	-1.9262	-2.7114	6.7709	-24.0294	859.9035	-44.4648	307.8498	63.0964	1001.7525	-0.0592	0.0182	-0.0073	-0.0462	0.0165	0.9585
54.3254	-2.0266	2.9524	1.1214	-0.90152	-1.9219	3.2041	-22.1801	876.7133	-44.9368	313.9268	62.315	1017.768	-0.0592	0.0182	-0.0073	-0.0462	0.0165	0.9585
54.3468	-1.3232	0.59469	0.70905	-0.17352	-1.3006	0.6637	-20.1729	883.8586	-45.1143	316.4446	61.029	1022.5885	-0.0592	0.0182	-0.0073	-0.0462	0.0165	0.9585
54.3681	-0.79848	-0.95112	0.43137	0.30265	-0.86178	-1.0037	-18.0052	880.5426	-44.9211	315.1131	59.1866	1015.4567	-0.0592	0.0182	-0.0073	-0.0462	0.0165	0.9585
54.3895	-0.45001	-1.8974	0.26829	0.59589	-0.59106	-2.0356	-15.6506	867.6929	-44.3304	310.2753	56.7927	997.546	-0.0592	0.0182	-0.0073	-0.0462	0.0165	0.9585
54.4109	-0.25447	-2.4778	0.1934	0.78165	-0.45941	-2.6875	-13.0713	847.5407	-43.393	302.7488	53.9367	971.467	-0.0592	0.0182	-0.0073	-0.0462	0.0165	0.9585
54.4322	-0.17918	-2.909	0.18101	0.92943	-0.43342	-3.1975	-10.2467	822.9893	-42.2402	293.592	50.7984	940.5517	-0.0592	0.0182	-0.0073	-0.0462	0.0165	0.9585
54.4536	-0.18777	-3.37	0.20524	1.0942	-0.4721	-3.763	-7.1968	796.9945	-41.0465	283.8823	47.6078	908.1584	-0.0592	0.0182	-0.0073	-0.0462	0.0165	0.9585
54.4749	-0.24092	-3.9795	0.23829	1.3102	-0.52699	-4.5183	-3.9775	772.1392	-39.9646	274.5676	44.5701	877.1925	-0.0592	0.0182	-0.0073	-0.0462	0.0165	0.9585
54.4963	-0.29724	-4.7778	0.25168	1.5867	-0.55028	-5.5116	-0.67038	750.3974	-39.0834	266.3826	41.8184	849.8466	-0.0592	0.0182	-0.0073	-0.0462	0.0165	0.9585
54.5176	-0.30876	-5.7	0.21527	1.8983	-0.49118	-6.6683	2.6202	733.0502	-38.4372	259.8137	39.4206	827.5208	-0.0592	0.0182	-0.0073	-0.0462	0.0165	0.9585
54.539	-0.21729	-6.551	0.096707	2.1773	-0.29393	-7.7621	5.7755	720.7152	-38.0356	255.1043	37.4183	810.8639	-0.0592	0.0182	-0.0073	-0.0462	0.0165	0.9585
54.5604	0.036809	-6.9789	-0.13403	2.3016	0.097985	-8.3754	8.6893	713.4462	-37.8811	252.287	35.8433	799.8986	-0.0592	0.0182	-0.0073	-0.0462	0.0165	0.9585
54.5817	0.51193	-6.446	-0.50078	2.0863	0.73359	-7.8615	11.2879	710.8285	-37.9728	251.2156	34.7134	794.1384	-0.0592	0.0182	-0.0073	-0.0462	0.0165	0.9585
54.6031	1.2556	-4.2086	-1.0137	1.2796	1.6388	-5.3198	13.5239	712.0418	-38.305	251.5868	34.0314	792.6655	-0.0592	0.0182	-0.0073	-0.0462	0.0165	0.9585
54.6244	2.2872	0.65747	-1.6531	-0.42801	2.7941	0.37082	15.3564	715.9203	-38.858	252.9662	33.7859	794.2095	-0.0592	0.0182	-0.0073	-0.0462	0.0165	0.9585
54.6458	3.5722	9.1665	-2.3539	-3.3709	4.1044	10.4485	16.7343	721.0462	-39.5804	254.8239	33.9358	797.2511	-0.0592	0.0182	-0.0073	-0.0462	0.0165	0.9585
54.6671	4.9828	22.2345	-2.9814	-7.845	5.3553	26.0534	17.5955	725.8413	-40.3831	256.57	34.3984	800.1312	-0.0592	0.0182	-0.0073	-0.0462	0.0165	0.9585
54.6885	6.2508	40.3654	-3.306	-13.996	6.1678	47.8528	17.8879	728.5822	-41.1439	257.5651	35.0497	801.0501	-0.0592	0.0182	-0.0073	-0.0462	0.0165	0.9585
54.7099	6.9244	63.1757	-2.9769	-21.6586	5.9522	75.4633	17.6017	727.4391	-41.7176	257.1412	35.7278	798.0814	-0.0592	0.0182	-0.0073	-0.0462	0.0165	0.9585
54.7312	6.4893	88.963	-1.5864	-30.2171	4.0347	106.9274	16.7833	720.7143	-41.9542	254.6937	36.2524	789.4063	-0.0592	0.0182	-0.0073	-0.0462	0.0165	0.9585
54.7526	4.9856	115.1004	0.96284	-38.767	0.31149	139.124	15.5458	707.3061	-41.752	249.8459	36.479	773.8033	-0.0592	0.0182	-0.0073	-0.0462	0.0165	0.9585
54.7739	2.8701	139.0918	4.1336	-46.4995	-4.4005	169.0013	14.074	687.1433	-41.0886	242.5945	36.3273	751.1133	-0.0592	0.0182	-0.0073	-0.0462	0.0165	0.9585
